<svg id="Capa_1" enable-background="new 0 0 512 512" height="512" viewBox="0 0 512 512" width="512" xmlns="http://www.w3.org/2000/svg"><g><g><path d="m78.374 502h-47.74v-468.13c0-13.183 10.687-23.87 23.87-23.87 13.183 0 23.87 10.687 23.87 23.87z" fill="#e0a083"/></g><g><path d="m481.643 502h-48.74v-468.13c0-13.183 10.687-23.87 23.87-23.87h1c13.183 0 23.87 10.687 23.87 23.87z" fill="#e0a083"/></g><g><path d="m78.374 381.681h354.529v47.74h-354.529z" fill="#e0a083"/></g><g><path d="m78.374 182.051h354.529v47.74h-354.529z" fill="#e0a083"/></g><g><path d="m339.97 381.68h-108.122c-13.145 0-23.802-10.656-23.802-23.802 0-13.145 10.656-23.802 23.802-23.802h108.122z" fill="#eaf0f0"/></g><g><path d="m304.803 334.077h-108.122c-13.145 0-23.802-10.656-23.802-23.802 0-13.145 10.656-23.802 23.802-23.802h108.123v47.604z" fill="#eaf0f0"/></g><g><path d="m248.053 134.447h98.122c13.145 0 23.802 10.656 23.802 23.802 0 13.145-10.656 23.802-23.802 23.802h-98.123z" fill="#eaf0f0"/></g><g><path d="m153.233 67.96h47.41v114.091h-47.41z" fill="#ffce62"/></g><g><path d="m200.643 25.272h47.41v156.779h-47.41z" fill="#ff7e96"/></g><g><path d="m200.643 67.96h47.41v66.488h-47.41z" fill="#eaf0f0"/></g><g><path d="m265.229 425.6c-2.066-5.035-8.038-7.499-13.06-5.41-5.024 2.09-7.488 8.022-5.4 13.051 2.088 5.03 8.012 7.5 13.049 5.409 5.027-2.087 7.508-8.015 5.411-13.05z"/><path d="m502 492h-10.357v-458.13c0-18.676-15.194-33.87-33.87-33.87h-1c-18.676 0-33.87 15.194-33.87 33.87v138.181h-45.884c1.895-4.218 2.958-8.886 2.958-13.802 0-18.639-15.163-33.802-33.802-33.802h-88.122v-99.176c0-5.522-4.477-10-10-10h-47.41c-5.523 0-10 4.478-10 10v32.689h-37.41c-5.523 0-10 4.478-10 10v104.091h-54.859v-138.181c0-18.676-15.194-33.87-33.871-33.87s-33.87 15.194-33.87 33.87v458.13h-10.633c-5.523 0-10 4.478-10 10s4.477 10 10 10h492c5.522 0 10-4.478 10-10s-4.478-10-10-10zm-79.098-120.319h-72.932v-37.604c0-5.522-4.478-10-10-10h-25.167v-37.604c0-5.522-4.478-10-10-10h-108.122c-18.638 0-33.802 15.163-33.802 33.802s15.164 33.802 33.802 33.802h4.324c-1.895 4.218-2.958 8.886-2.958 13.802s1.063 9.584 2.958 13.802h-112.631v-131.89h334.528zm-204.856-13.802c0-7.61 6.191-13.802 13.802-13.802h72.956 25.167v27.604h-98.123c-7.61 0-13.802-6.192-13.802-13.802zm76.758-33.802h-62.956-35.167c-7.61 0-13.802-6.191-13.802-13.802s6.191-13.802 13.802-13.802h98.123zm-206.43 115.344h122.951c5.523 0 10-4.478 10-10s-4.477-10-10-10h-122.951v-27.74h334.528v27.74h-123.623c-5.522 0-10 4.478-10 10s4.478 10 10 10h123.623v52.579h-334.528zm271.603-281.172c0 7.61-6.191 13.802-13.801 13.802h-88.123v-27.604h88.122c7.61 0 13.802 6.192 13.802 13.802zm-149.334 13.802v-26.869h27.41v26.869zm27.41-47.869h-27.41v-46.222h27.41zm0-88.911v22.689h-27.41v-22.689zm-74.82 42.689h27.41v94.091h-27.41zm259.669 114.091v27.74h-334.528v-27.74zm-382.269 299.949v-458.13c0-7.648 6.222-13.87 13.871-13.87 7.648 0 13.87 6.222 13.87 13.87v458.13zm402.269 0v-458.13c0-7.648 6.222-13.87 13.87-13.87h1c7.648 0 13.87 6.222 13.87 13.87v458.13z"/></g></g></svg>