<?xml version="1.0" encoding="utf-8"?>
<!-- Generator: Adobe Illustrator 24.3.0, SVG Export Plug-In . SVG Version: 6.00 Build 0)  -->
<svg version="1.1" xmlns="http://www.w3.org/2000/svg" xmlns:xlink="http://www.w3.org/1999/xlink" x="0px" y="0px"
	 viewBox="0 0 150.45 40.36" style="enable-background:new 0 0 150.45 40.36;" xml:space="preserve">
<style type="text/css">
	.st0{fill:#F8F8F8;}
	.st1{fill:#2E2C20;}
	.st2{fill:#FFFFFF;}
	.st3{fill:#6D2A18;}
	.st4{fill:#E79B24;}
	.st5{fill:#FFB536;}
	.st6{fill:#EDBA2C;}
	.st7{fill:none;stroke:#161616;stroke-width:2;stroke-linecap:round;stroke-linejoin:round;stroke-miterlimit:10;}
	.st8{fill:#894935;}
	.st9{fill:#4E412E;}
	.st10{fill:#AB8571;}
	.st11{fill:#E48920;}
	.st12{fill:#2A2819;}
</style>
<g id="BACKGROUND">
</g>
<g id="OBJECTS">
	<g>
		<g>
			<g>
				<path class="st12" d="M3.04,29.98c-0.32,0-0.52-0.16-0.52-0.48v-2.04c0-0.32,0.16-0.48,0.52-0.48H6.1V4.26H3.04
					c-0.32,0-0.52-0.16-0.52-0.48V1.74c0-0.32,0.16-0.48,0.52-0.48h12.98c5.52,0,8.5,3.2,8.5,7.68c0,2.68-1.37,4.8-3.59,6.04
					c3.87,1.12,5.16,3.72,5.16,6.8c0,4.8-3.14,8.2-10.03,8.2H3.04z M15.78,13.86c2.46-0.04,5.2-1.32,5.2-4.64
					c0-3.92-2.94-4.96-5.64-4.96H9.61v9.6H15.78z M15.78,26.98c4.03,0,6.77-1.6,6.77-5.48c0-3.36-2.38-5-6.53-5H9.61v10.48H15.78z"
					/>
				<path class="st12" d="M27.56,20.06c0-6.32,4.47-10.04,10.07-10.04s9.99,3.8,9.99,10.04c0,6.24-4.27,10.2-10.03,10.2
					C31.88,30.26,27.56,26.34,27.56,20.06z M44.29,20.1c0-4.56-3.18-7.28-6.65-7.28c-3.51,0-6.69,2.72-6.69,7.28
					c0,4.52,3.06,7.36,6.65,7.36C41.22,27.46,44.29,24.62,44.29,20.1z"/>
				<path class="st12" d="M54.89,20.06c0-6.32,4.47-10.04,10.07-10.04s9.99,3.8,9.99,10.04c0,6.24-4.27,10.2-10.03,10.2
					C59.2,30.26,54.89,26.34,54.89,20.06z M71.61,20.1c0-4.56-3.18-7.28-6.65-7.28c-3.51,0-6.69,2.72-6.69,7.28
					c0,4.52,3.06,7.36,6.65,7.36C68.55,27.46,71.61,24.62,71.61,20.1z"/>
			</g>
			<g>
				<g>
					<path class="st12" d="M46.94,22.64l-2.38-1.82c0.12-0.16,3.01-3.89,7.06-3.89c2.44,0,4.68,1.31,6.64,3.89l-2.39,1.82
						c-1.37-1.79-2.8-2.71-4.25-2.71c0,0-0.01,0-0.01,0C49.07,19.92,46.97,22.61,46.94,22.64z"/>
				</g>
			</g>
			<g>
				<path class="st12" d="M103.96,8.18c1.25,0,2.26-0.96,2.26-2.2c0-1.24-1.01-2.28-2.26-2.28c-1.25,0-2.26,1.04-2.26,2.28
					C101.7,7.22,102.71,8.18,103.96,8.18z"/>
				<path class="st12" d="M107.83,27.3h-2.14V10.78c0-0.32-0.16-0.48-0.48-0.48h-5.08c-0.32,0-0.52,0.16-0.52,0.48v1.72
					c0,0.32,0.2,0.48,0.52,0.48h2.22V27.3h-2.22H96.9h-0.73h-1.01l-7.54-10.04l4.92-4.28h2.62c0.32,0,0.48-0.16,0.48-0.48v-1.72
					c0-0.32-0.16-0.48-0.48-0.48h-7.74c-0.32,0-0.48,0.16-0.48,0.48v1.72c0,0.32,0.16,0.48,0.48,0.48h1.45l-7.33,6.68V1.74
					c0-0.32-0.16-0.48-0.48-0.48h-5.08c-0.32,0-0.52,0.16-0.52,0.48v1.72c0,0.32,0.2,0.48,0.52,0.48h2.22V27.3h-2.22
					c-0.32,0-0.52,0.16-0.52,0.48v1.72c0,0.32,0.2,0.48,0.52,0.48h7.7c0.32,0,0.52-0.16,0.52-0.48v-1.72c0-0.32-0.2-0.48-0.52-0.48
					h-2.14v-4.56l3.91-3.6l7.13,9.6c0.56,0.8,1.29,1.24,2.14,1.24h1.45h0.73h3.23h5.18h2.52c0.32,0,0.52-0.16,0.52-0.48v-1.72
					C108.35,27.46,108.15,27.3,107.83,27.3z"/>
				<path class="st12" d="M147.44,10.3h-7.5c-0.32,0-0.48,0.16-0.48,0.48v1.72c0,0.32,0.16,0.48,0.48,0.48h1.81l-4.84,13.56h-0.08
					l-5.2-13.56h1.65c0.32,0,0.52-0.16,0.52-0.48v-1.72c0-0.32-0.2-0.48-0.52-0.48h-3.69h-3.6h-3.27h-2.26h-2.89V7.86
					c0-2.64,1.29-4,3.47-4c1.21,0,2.02,0.6,2.22,0.76c0.24,0.2,0.48,0.12,0.69-0.08l0.97-1.24c0.2-0.24,0.16-0.44-0.12-0.68
					c-0.36-0.32-1.69-1.6-4.07-1.6c-4.03,0-6.49,2.28-6.49,6.8v2.48h-2.3c-0.32,0-0.52,0.16-0.52,0.48v1.72
					c0,0.32,0.2,0.48,0.52,0.48h2.3V27.3h-2.22c-0.32,0-0.52,0.16-0.52,0.48v1.72c0,0.32,0.2,0.48,0.52,0.48h9.11
					c0.32,0,0.48-0.16,0.48-0.48v-1.72c0-0.32-0.16-0.48-0.48-0.48h-3.55V12.98h2.89h2.26h3.27h2.22l7.23,17.94l-0.58,1.58
					c-1.05,2.84-1.97,4-4.03,4c-1.25,0-1.93-0.6-2.14-0.76c-0.28-0.2-0.48-0.16-0.73,0.04l-1.01,1.28c-0.2,0.24-0.12,0.48,0.12,0.72
					c0.36,0.32,1.69,1.56,4.07,1.56c3.83,0,5.28-2.56,6.85-6.8l7.17-19.56h2.26c0.32,0,0.48-0.16,0.48-0.48v-1.72
					C147.93,10.46,147.77,10.3,147.44,10.3z"/>
			</g>
		</g>
	</g>
</g>
</svg>
