<?xml version="1.0" encoding="utf-8"?>
<!-- Generator: Adobe Illustrator 24.3.0, SVG Export Plug-In . SVG Version: 6.00 Build 0)  -->
<svg version="1.1" id="Layer_1" xmlns="http://www.w3.org/2000/svg" xmlns:xlink="http://www.w3.org/1999/xlink" x="0px" y="0px"
	 viewBox="0 0 386 386" style="enable-background:new 0 0 386 386;" xml:space="preserve">
<style type="text/css">
	.st0{fill:#2A2819;}
</style>
<g id="Labrador_retriever">
	<path class="st0" d="M344.3,39.28l-47.05-24.83c-8.9-4.79-19.8-3.77-27.65,2.6c-2.29,1.84-4.24,4.06-5.78,6.56
		c-9.24-4.23-19.28-6.42-29.45-6.43h-82.77c-10.16,0.01-20.2,2.2-29.44,6.43c-1.54-2.5-3.49-4.72-5.78-6.56
		c-7.85-6.37-18.75-7.4-27.65-2.6L41.7,39.28C20.2,50.5,10.21,75.8,18.24,98.68l24.82,71.72c4.62,13.26,19.11,20.26,32.37,15.65
		c1.84-0.64,3.59-1.49,5.24-2.53v123.39c0,37.14,42.43,56.82,73.18,63.5c23.03,4.92,46.78,5.46,70.01,1.58
		c19.74-3.27,39.63-9.85,55.94-21.72c14.03-10.21,25.54-25.33,25.54-43.36V183.52c11.86,7.51,27.57,3.98,35.08-7.88
		c1.04-1.64,1.89-3.4,2.53-5.24l24.82-71.72C375.79,75.8,365.8,50.5,344.3,39.28z M67.47,174.66c-5.54,0.3-10.59-3.16-12.31-8.44
		L30.34,94.5c-5.94-16.91,1.45-35.61,17.33-43.9l47.05-24.83c4.41-2.35,9.8-1.85,13.69,1.29c3.97,3.06,5.68,8.24,4.3,13.06
		L79.14,165.36C77.82,170.76,73.02,174.58,67.47,174.66z M193,361.68c-53.95,0-99.53-25.08-99.53-54.77V161.36l31.6-117.94
		c0.66-2.44,0.95-4.96,0.88-7.48c7.99-3.93,16.77-5.97,25.67-5.97h82.77c8.9,0,17.68,2.04,25.67,5.97
		c-0.07,2.52,0.22,5.04,0.88,7.48l31.6,117.94v145.55C292.53,336.6,246.95,361.68,193,361.68z M355.66,94.5l-24.82,71.72
		c-2.27,6.55-9.42,10.03-15.97,7.76c-3.94-1.36-6.94-4.59-8.02-8.62L273.3,40.12c-1.38-4.82,0.32-10,4.3-13.06
		c3.89-3.14,9.28-3.64,13.69-1.29l47.05,24.83C354.22,58.89,361.6,77.59,355.66,94.5L355.66,94.5z"/>
	<path class="st0" d="M243.76,182.7c-7.2,0-5.81,7.73-7.37,12.39c-3.31,9.94-14.06,15.32-24,12.01
		c-6.36-2.12-11.13-7.44-12.55-13.99c0.68-0.54,1.29-1.15,1.83-1.84l14.49-18.53c3.74-4.79,2.9-11.7-1.89-15.44
		c-1.93-1.51-4.32-2.33-6.78-2.33h-28.98c-6.07,0-11,4.92-11,11c0,2.46,0.82,4.84,2.34,6.78l14.49,18.53
		c0.54,0.68,1.15,1.3,1.83,1.84c-3.64,16.83-26.96,20.14-35.2,5.07c-0.88-1.62-1.53-3.36-1.91-5.16c-0.42-1.97-0.12-4.12-0.78-6.02
		c-1.21-3.36-4.91-5.1-8.27-3.89c-0.35,0.12-0.68,0.28-1,0.46c-6.78,3.96-1.79,16.48,1.15,21.52c4.57,7.79,12.22,13.28,21.05,15.14
		v33.36c0,17.55,14.23,31.78,31.78,31.78c17.55,0,31.78-14.23,31.78-31.78v-33.36c8.84-1.86,16.48-7.36,21.05-15.14
		C248.87,199.89,254.9,182.7,243.76,182.7z M193,272.58c-10.48-0.01-18.97-8.5-18.98-18.98v-33.36c7.59-1.58,14.34-5.88,18.98-12.09
		c4.64,6.21,11.39,10.5,18.98,12.09v33.36C211.97,264.08,203.48,272.57,193,272.58z"/>
	<path class="st0" d="M156.87,119.58v-10.14c0-7.95-6.45-14.4-14.4-14.4c-7.95,0-14.4,6.45-14.4,14.4v10.14
		c0,7.95,6.45,14.4,14.4,14.4C150.43,133.98,156.87,127.53,156.87,119.58L156.87,119.58z"/>
	<path class="st0" d="M243.52,95.04c-7.95,0.01-14.39,6.45-14.4,14.4v10.14c-0.01,7.95,6.43,14.41,14.39,14.41
		c7.95,0.01,14.41-6.43,14.41-14.39c0-0.01,0-0.02,0-0.03v-10.14C257.92,101.49,251.47,95.05,243.52,95.04z"/>
</g>
</svg>
