<svg id="Capa_1" enable-background="new 0 0 511.998 511.998" height="512" viewBox="0 0 511.998 511.998" width="512" xmlns="http://www.w3.org/2000/svg"><g><g><path d="m100.89 247.019c-3.53.94-6.87 2.76-9.68 5.46l-37.72 36.48v-202.73h47.4z" fill="#e0a083"/></g><g><path d="m256 306.629v29.32h-163.79v-7.17c0-9.14 3.63-17.9 10.09-24.36l15.71-15.72h81.64c19.693 0 40.231 6.45 56.35 17.93z" fill="#e0a083"/></g><g><path d="m419.79 335.949v-7.17c0-9.14-3.63-17.9-10.09-24.36l-15.72-15.72h-81.62c-19.859 0-40.177 6.479-56.35 17.94v29.31z" fill="#e0a083"/></g><g><path d="m458.51 86.229v202.73l-37.72-36.48c-2.81-2.7-6.15-4.52-9.68-5.46v-160.79z" fill="#e0a083"/></g><g><path d="m256.01 306.629c-16.395-11.504-36.23-17.93-56.36-17.93h-81.64l4.4-4.4c8.71-8.7 8.71-22.81 0-31.51-5.82-5.82-14.08-7.76-21.52-5.77v-179.56h98.76c20.09 0 39.94 6.33 56.35 17.92z" fill="#eaf0f0"/></g><g><path d="m411.11 67.459v179.56c-7.44-1.99-15.7-.05-21.53 5.77-8.7 8.7-8.7 22.81 0 31.51l4.4 4.4h-81.62c-19.851 0-40.182 6.472-56.35 17.93v-221.24c16.48-11.67 36.16-17.93 56.35-17.93z" fill="#eaf0f0"/></g><g><path d="m10 444.539.005-166.462c0-10.084 4.264-19.697 11.739-26.465l31.746-28.746v66.092l37.719-36.474c8.749-8.414 22.622-8.279 31.205.304 8.703 8.703 8.703 22.812 0 31.515l-20.119 20.119c-6.459 6.459-10.088 15.22-10.088 24.354v22.156c0 9.688-4.08 18.929-11.241 25.455l-8.895 8.32 6.9 59.832z" fill="#ffd0c6"/></g><g><path d="m501.998 444.539-.005-166.462c0-10.084-4.264-19.697-11.739-26.465l-31.746-28.746v66.092l-37.719-36.474c-8.749-8.414-22.622-8.279-31.205.304-8.703 8.703-8.703 22.812 0 31.515l20.119 20.119c6.459 6.459 10.088 15.22 10.088 24.354v22.156c0 9.688 4.081 18.929 11.241 25.455l8.441 7.895-6.446 60.257z" fill="#ffd0c6"/></g><g><path d="m511.993 278.077c0-12.883-5.477-25.23-15.027-33.879l-28.456-25.768v-132.201c0-5.522-4.477-10-10-10h-37.4v-8.771c0-5.522-4.477-10-10-10h-98.75c-20.071 0-39.411 5.513-56.363 15.974-16.868-10.33-36.618-15.974-56.347-15.974h-98.76c-5.523 0-10 4.478-10 10v8.771h-37.4c-5.523 0-10 4.478-10 10v132.2l-28.458 25.77c-9.549 8.647-15.026 20.995-15.026 33.878l-.006 166.462c0 5.522 4.477 10 10 10 5.522 0 10-4.478 10-10l.005-166.462c0-7.245 3.08-14.189 8.451-19.053l15.034-13.613v43.546.002c0 4.015 2.4 7.64 6.096 9.206 3.642 1.545 8.005.74 10.855-2.018l19.103-18.474 18.597-17.983c5.265-5.068 14.089-4.252 18.407 1.594 3.542 4.82 3.025 11.715-1.209 15.943l-16.702 16.71c-9.691 9.692-16.429 20.67-16.429 34.838v22.156c0 6.859-2.908 13.443-7.978 18.064-.032.029-.063.059-.095.088l-8.895 8.32c-2.315 2.165-3.466 5.3-3.103 8.448l6.9 59.832c.588 5.098 4.911 8.855 9.921 8.855.383 0 .769-.021 1.158-.066 5.487-.633 9.421-5.594 8.789-11.08l-6.322-54.826 5.172-4.838c9.186-8.398 14.453-20.349 14.453-32.798v-4.982h192.82c5.523 0 10-4.478 10-10s-4.477-10-10-10h-29.018v-13.937c13.781-8.534 30.124-13.313 46.35-13.313h77.478l12.791 12.791c3.879 3.879 6.365 9.007 6.994 14.459h-26.619c-5.523 0-10 4.478-10 10s4.477 10 10 10h26.787v4.982c0 12.449 5.268 24.401 14.455 32.8l4.753 4.446-5.916 55.298c-.587 5.491 3.388 10.419 8.88 11.007.361.039.72.058 1.076.058 5.045 0 9.382-3.808 9.931-8.938l6.446-60.257c.334-3.123-.818-6.221-3.112-8.366-2.7-2.525-5.397-5.053-8.099-7.576-5.193-4.849-8.414-11.276-8.414-18.472v-22.156c0-11.872-4.623-23.032-13.017-31.426l-20.119-20.119c-4.79-4.789-4.79-12.583 0-17.372 4.622-4.622 12.462-4.729 17.183-.187l37.72 36.476c2.849 2.756 7.21 3.565 10.855 2.018 3.696-1.566 6.096-5.191 6.096-9.206v-43.547l15.032 13.611c5.371 4.864 8.451 11.809 8.451 19.054l.005 166.462c0 5.523 4.478 10 10 10s10-4.478 10-10zm-63.483-181.848v126.616c0 .007-.001.013-.001.02v42.509l-20.79-20.106c-1.972-1.895-4.223-3.561-6.609-4.896v-144.143zm-337.62-18.771h88.76c16.241 0 32.512 4.689 46.35 13.284l.009 198.534c-14.414-6.848-30.389-10.578-46.359-10.578h-62.33c2.999-9.074 1.76-19.271-3.335-27.352-5.072-8.044-13.667-13.536-23.095-14.793zm-47.4 18.771h27.4v144.144c-2.396 1.342-4.652 3.016-6.632 4.918l-20.768 20.084v-42.511zm38.885 229.72c.919-7.965 5.657-13.119 11.062-18.527l8.723-8.723h77.491c16.278 0 32.524 4.777 46.35 13.324v13.926zm209.985-47.25c-15.964 0-31.94 3.678-46.35 10.531v-198.493c13.909-8.703 29.829-13.278 46.35-13.278h88.75v159.096c-6.975.932-13.619 4.195-18.601 9.163-8.546 8.547-11.618 21.513-7.833 32.981z"/><path d="m150 133.539h50c5.523 0 10-4.478 10-10s-4.477-10-10-10h-50c-5.523 0-10 4.478-10 10s4.477 10 10 10z"/><path d="m150 186.539h50c5.523 0 10-4.478 10-10s-4.477-10-10-10h-50c-5.523 0-10 4.478-10 10s4.477 10 10 10z"/><path d="m150 239.539h50c5.523 0 10-4.478 10-10s-4.477-10-10-10h-50c-5.523 0-10 4.478-10 10s4.477 10 10 10z"/><path d="m360 113.539h-50c-5.523 0-10 4.478-10 10s4.477 10 10 10h50c5.523 0 10-4.478 10-10s-4.477-10-10-10z"/><path d="m360 166.539h-50c-5.523 0-10 4.478-10 10s4.477 10 10 10h50c5.523 0 10-4.478 10-10s-4.477-10-10-10z"/><path d="m360 219.539h-50c-5.523 0-10 4.478-10 10s4.477 10 10 10h50c5.523 0 10-4.478 10-10s-4.477-10-10-10z"/><path d="m348.809 332.119c-1.638-3.936-5.719-6.452-9.972-6.135-4.354.325-8.047 3.523-9.014 7.776-1.986 8.739 8.183 15.471 15.506 10.358 3.801-2.654 5.234-7.724 3.48-11.999z"/></g></g></svg>