<svg id="Capa_1" enable-background="new 0 0 512.003 512.003" height="512" viewBox="0 0 512.003 512.003" width="512" xmlns="http://www.w3.org/2000/svg"><g><g><g><path d="m457.436 280.96c16.53 0 29.93-13.4 29.93-29.93v-165.92c0-16.53-13.4-29.93-29.93-29.93h-114.39v116.44h-.01l-147.06-.02c-18.146 0-32.672 14.469-33.72 32.29.01-11.82-.01-90.78-.02-148.71h-107.67c-16.53 0-29.93 13.4-29.93 29.93v165.92c0 16.53 13.4 29.93 29.93 29.93h161.13v-39.05c0-.97.05-1.92.15-2.85 1.39-13.57 12.65-22.81 25.5-22.81 13.19 0 24.05 9.95 25.49 22.75.11.95.17 1.93.17 2.91v39.05z" fill="#00d5f5"/></g><g><path d="m66.796 165.065c0 17.657-14.312 31.969-31.969 31.969-3.566 0-6.985-.579-10.191-1.656v-60.617c3.207-1.077 6.625-1.656 10.191-1.656 17.658-.001 31.969 14.311 31.969 31.96z" fill="#eaf0f0"/></g></g><g><g><path d="m343.036 171.62v67.26l-76.2.12c-1.44-12.8-12.3-22.75-25.49-22.75-12.85 0-24.11 9.24-25.5 22.81l-19.88.02c-18.63 0-33.74-15.1-33.74-33.74 0-18.384 15.288-33.74 33.75-33.74z" fill="#eaf0f0"/></g></g><g><path d="m420.956 402.93v7.64c0 25.21-5.84 50.09-17.05 72.67l-9.32 18.76h-192.74l-7.57-10.73c-19.46-27.57-29.9-60.48-29.9-94.21v-77.15c28.34 0 51.32 22.98 51.32 51.32v-129.32c0-15.11 11.92-25.66 25.65-25.66 14.17 0 25.66 11.49 25.66 25.66v125.35c0-15.21 11.18-25.66 25.66-25.66 14.17 0 25.66 11.49 25.66 25.66v16.8c0-13.98 11.668-25.66 25.65-25.66 14.17 0 25.66 11.49 25.66 25.66v18.87c0-14.17 11.49-25.66 25.66-25.66s25.66 11.49 25.66 25.66z" fill="#ffd0c6"/></g><g><g><path d="m343.042 171.62v-161.62h-153.812c-14.91 0-26.999 12.089-26.999 26.999 0 .671.046 151.826.023 167.199.582-17.607 15.638-32.754 33.722-32.596z" fill="#ff7e96"/></g></g><g><path d="m457.437 45.18h-104.395v-35.18c0-5.522-4.477-10-10-10h-153.812c-10.699 0-21.02 4.76-28.007 12.854-6.649 7.702-8.994 16.935-8.991 26.907 0 1.717.001 3.533.002 5.419h-97.668c-22.018 0-39.93 17.912-39.93 39.93v165.92c0 22.018 17.913 39.93 39.93 39.93h151.13v35c-10.908-9.964-25.417-16.05-41.32-16.05-5.523 0-10 4.478-10 10v77.15c0 35.996 10.972 70.567 31.73 99.976.344.487.731.942 1.156 1.361l10.905 10.73c3.936 3.871 10.268 3.822 14.142-.114 3.874-3.937 3.823-10.268-.114-14.142l-10.255-10.092c-18.036-25.859-27.563-56.17-27.563-87.72v-65.927c17.951 4.478 31.293 20.729 31.319 40.042 0 .018-.003.036-.003.054v38.406c0 5.522 4.477 10 10 10s10-4.478 10-10l.004-167.726c0-8.673 6.946-15.66 15.65-15.66 8.497 0 15.66 7.142 15.66 15.66v125.35c0 5.522 4.477 10 10 10s10-4.478 10-10c0-9.367 6.293-15.66 15.66-15.66 8.635 0 15.66 7.025 15.66 15.66v16.801c0 5.522 4.477 10 10 10s10-4.478 10-10c0-8.525 7.121-15.66 15.65-15.66 8.635 0 15.66 7.025 15.66 15.66v18.869c0 5.522 4.477 10 10 10s10-4.478 10-10c0-8.635 7.025-15.66 15.66-15.66s15.66 7.025 15.66 15.66v7.641c0 23.539-5.535 47.13-16.007 68.224-.225.453-.416.924-.57 1.406l-5.985 18.76c-1.679 5.262 1.226 10.889 6.487 12.567 1.011.322 2.035.476 3.042.476 4.235 0 8.168-2.713 9.524-6.963l5.758-18.046c11.614-23.665 17.75-50.074 17.75-76.424v-7.641c0-19.663-15.997-35.66-35.66-35.66-6.459 0-12.524 1.727-17.755 4.742-4.952-13.752-18.129-23.611-33.565-23.611-6.597 0-12.916 1.777-18.41 5.104-5.395-12.854-18.111-21.904-32.9-21.904-5.687 0-10.982 1.199-15.66 3.372v-44.011h66.329c5.523 0 10-4.478 10-10s-4.477-10-10-10h-66.329v-21.976l66.046-.104c5.517-.009 9.984-4.483 9.984-10l.01-173.7h104.39c10.99 0 19.93 8.94 19.93 19.93v165.92c0 10.989-8.94 19.93-19.93 19.93h-25.38c-5.523 0-10 4.478-10 10s4.477 10 10 10h25.38c22.018 0 39.93-17.912 39.93-39.93v-165.921c.001-22.017-17.912-39.929-39.929-39.929zm-268.207-25.18h143.812v141.619l-136.996-.019c-8.413 0-16.729 2.407-23.786 7.006-.003-32.648-.027-124.286-.028-128.851-.004-10.178 5.667-19.755 16.998-19.755zm-154.594 123.105c.064-.001.127-.001.191-.001 12.114 0 21.969 9.852 21.969 21.96 0 12.113-9.855 21.969-21.969 21.969-.064 0-.127 0-.191-.001zm19.93 127.855c-10.99 0-19.93-8.94-19.93-19.93v-44.001c.064 0 .127.004.191.004 23.142 0 41.969-18.827 41.969-41.969 0-23.137-18.827-41.96-41.969-41.96-.064 0-.128.003-.191.004v-37.999c0-10.989 8.94-19.93 19.93-19.93h97.672s-.012 137.713-.012 140.16c0 24.118 19.622 43.74 43.75 43.74l9.72-.01v21.889h-151.13zm278.471-42.064-58.44.092c-5.019-12.976-17.605-22.014-31.478-22.692-15.257-.748-29.718 8.387-35.114 22.773l-12.038.012c-13.09 0-23.74-10.649-23.74-23.74 0-12.669 11.02-23.883 23.748-23.738l137.062.018z"/><path d="m391.971 271.729c-4.06-1.664-8.878-.463-11.626 2.977-2.586 3.237-2.901 7.832-.774 11.391 4.601 7.697 16.597 5.577 18.371-3.187.934-4.619-1.629-9.372-5.971-11.181z"/><path d="m214.692 70.787h75.974c5.523 0 10-4.478 10-10s-4.477-10-10-10h-75.974c-5.523 0-10 4.478-10 10s4.477 10 10 10z"/></g></g></svg>